<?xml version="1.0" standalone="no"?>
<!DOCTYPE svg PUBLIC "-//W3C//DTD SVG 20010904//EN"
 "http://www.w3.org/TR/2001/REC-SVG-20010904/DTD/svg10.dtd">
<svg version="1.0" xmlns="http://www.w3.org/2000/svg"
 width="602.000000pt" height="602.000000pt" viewBox="0 0 602.000000 602.000000"
 preserveAspectRatio="xMidYMid meet">
<metadata>
Created by potrace 1.11, written by Peter Selinger 2001-2013
</metadata>
<g transform="translate(0.000000,602.000000) scale(0.100000,-0.100000)"
fill="#000000" stroke="none">
<path d="M2675 5404 c-493 -49 -891 -201 -1272 -485 -126 -94 -358 -326 -452
-452 -201 -269 -338 -554 -416 -862 -55 -218 -69 -342 -69 -590 0 -248 14
-372 69 -590 106 -420 315 -785 630 -1100 205 -206 391 -339 640 -460 231
-113 454 -182 710 -221 167 -25 512 -25 680 0 792 120 1465 610 1810 1321 143
293 218 574 240 896 l7 97 41 18 c57 26 134 105 162 167 70 152 49 307 -57
422 -60 66 -113 99 -188 118 l-55 14 -42 119 c-76 212 -198 440 -334 626 l-49
66 20 52 c73 186 -7 392 -189 485 -99 49 -235 49 -338 -1 l-52 -25 -97 57
c-266 156 -572 264 -874 309 -109 16 -437 28 -525 19z m386 -204 c278 -27 529
-101 779 -227 219 -111 205 -98 184 -169 -50 -174 40 -372 205 -451 81 -38
207 -44 292 -13 49 17 63 19 75 9 31 -26 164 -238 222 -354 52 -105 132 -299
132 -322 0 -4 -20 -21 -44 -36 -60 -38 -113 -98 -145 -166 -23 -49 -26 -69
-26 -156 0 -87 3 -107 27 -157 47 -101 140 -183 241 -213 l42 -13 -3 -78 c-4
-112 -38 -309 -77 -444 -173 -600 -579 -1084 -1145 -1364 -674 -334 -1479
-294 -2123 105 -277 172 -534 429 -706 706 -538 869 -409 1985 314 2708 464
465 1111 698 1756 635z m1442 -207 c65 -20 148 -98 178 -165 34 -79 33 -184
-4 -260 -35 -72 -111 -141 -179 -164 -67 -22 -187 -16 -244 14 -187 96 -232
346 -90 495 94 98 202 123 339 80z m739 -1396 c200 -93 245 -350 88 -507 -64
-64 -118 -85 -220 -85 -73 0 -92 4 -136 27 -28 15 -72 50 -97 78 -60 66 -81
130 -75 224 15 222 239 356 440 263z"/>
</g>
</svg>
